<?xml version="1.0" encoding="UTF-8"?>
<svg id="Warstwa_2" data-name="Warstwa 2" xmlns="http://www.w3.org/2000/svg" viewBox="0 0 98.71 183.84">
  <g id="Warstwa_1-2" data-name="Warstwa 1">
    <g>
      <path d="m8.8,90.05c0,5.5.34,10.33,2.05,17.4,3.04,12.33,10.43,29.21,13.01,34.94-1.11,1.57-1.71,3.4-1.74,5.31-.02,2.4.88,4.65,2.44,6.41-1.52,1.71-2.42,3.88-2.44,6.2-.03,2.71,1.12,5.2,3.03,7.03-1.37,1.66-2.17,3.72-2.2,5.94-.05,5.47,4.72,9.98,10.63,10.06l38.44.5h.15c2.94,0,5.76-1.12,7.78-3.09,1.86-1.82,2.9-4.2,2.92-6.72.03-2.71-1.12-5.2-3.03-7.03,1.37-1.66,2.17-3.72,2.19-5.95.02-2.39-.87-4.64-2.44-6.41,1.52-1.71,2.41-3.88,2.44-6.2.02-2.41-.88-4.63-2.42-6.37,2.7-5.99,9.89-22.51,12.88-34.66,1.7-7.06,2.04-11.89,2.04-17.39,0-23.64-19.23-42.88-42.88-42.88S8.8,66.4,8.8,90.05Zm66.63,86.07c-.82.8-2.02,1.31-3.31,1.24l-38.44-.51c-2.35-.03-4.25-1.6-4.23-3.5.02-1.46,1.18-2.75,2.91-3.21,1.48-.39,2.48-1.76,2.41-3.29-.07-1.53-1.2-2.79-2.71-3.05-1.98-.33-3.46-1.8-3.44-3.43.01-1.38,1.11-2.65,2.72-3.15,1.35-.42,2.28-1.67,2.28-3.09,0-1.42-.91-2.67-2.26-3.1-1.66-.53-2.76-1.84-2.75-3.26,0-.63.22-1.13.49-1.53h45.51c.59.61.96,1.35.95,2.16-.01,1.38-1.1,2.65-2.71,3.14-1.35.42-2.28,1.67-2.29,3.08,0,1.42.91,2.67,2.26,3.11,1.66.53,2.76,1.84,2.75,3.27-.01,1.46-1.18,2.75-2.9,3.21-1.48.39-2.48,1.76-2.41,3.29.07,1.53,1.2,2.79,2.7,3.05,1.98.33,3.45,1.81,3.44,3.43,0,1-.53,1.71-.97,2.14Zm-23.75-122.45c20.06,0,36.39,16.32,36.39,36.39,0,5.02-.31,9.43-1.86,15.85-2.87,11.68-10.14,28.31-12.64,33.85H29.79c-2.5-5.54-9.76-22.15-12.64-33.83-1.55-6.44-1.86-10.85-1.86-15.87,0-20.06,16.32-36.39,36.39-36.39Z"/>
      <path d="m6.76,15.28c-.62-.79-1.52-1.29-2.52-1.42-1-.12-1.99.16-2.79.78-.79.63-1.3,1.53-1.41,2.53-.12,1,.16,1.99.78,2.78l19.35,24.57c.72.91,1.82,1.44,2.97,1.44.04,0,.09,0,.13,0h0c.81-.03,1.57-.31,2.21-.81.79-.63,1.3-1.52,1.42-2.53.12-1-.16-1.99-.78-2.79L6.76,15.28Zm16.71,27.34c-.09.07-.2.11-.32.12-.17.02-.33-.07-.44-.21L3.36,17.95c-.11-.14-.12-.29-.11-.39.01-.08.05-.24.21-.36.11-.09.23-.11.33-.11.02,0,.05,0,.07,0,.08.01.24.05.36.2l19.35,24.57c.11.15.13.3.11.4,0,.08-.05.24-.2.36Z"/>
      <path d="m76.86,45.06h0c.63.42,1.35.63,2.09.63h.13c1.22-.04,2.35-.68,3.02-1.69l15.96-24.01c.56-.84.76-1.85.56-2.85-.2-.99-.77-1.84-1.62-2.4-.84-.56-1.85-.76-2.84-.56-.99.2-1.85.77-2.4,1.62l-15.96,24.01c-.56.84-.76,1.85-.56,2.84.2.99.77,1.84,1.61,2.4Zm1.65-3.45l15.96-24.01c.11-.16.26-.21.34-.23.08-.01.24-.03.4.08.16.11.22.26.23.35.02.1.02.25-.08.4l-15.96,24.01c-.14.21-.35.24-.43.24-.1,0-.22-.03-.31-.09-.16-.11-.21-.26-.23-.34-.01-.08-.03-.24.08-.4Z"/>
      <path d="m50.89,39.45c.05,0,.11,0,.16,0s.09,0,.13,0c1.97-.06,3.57-1.65,3.65-3.62l1.35-31.89c.04-1.01-.31-1.98-1-2.72-.69-.75-1.62-1.18-2.62-1.22-1.01-.04-1.97.3-2.72.98-.75.69-1.19,1.62-1.23,2.64l-1.34,31.89c-.04,1.01.31,1.98.99,2.72.69.74,1.62,1.18,2.63,1.22h0Zm-.38-3.8l1.34-31.89c0-.2.11-.32.18-.38.07-.07.2-.14.39-.14.18,0,.31.1.37.17.06.06.15.19.14.39l-1.34,31.89c-.01.28-.24.51-.54.52h-.02c-.18,0-.31-.1-.37-.18-.06-.06-.15-.19-.14-.39Z"/>
      <path d="m28.69,83.98h0c1.94.12,3.66-1.36,3.79-3.31.06-.94.2-1.83.43-2.73,1.49-5.88,6.25-8.18,9.98-9.08,1.75-.42,3.04-.47,3.17-.47,1.96-.05,3.52-1.68,3.48-3.63-.04-1.92-1.64-3.49-3.63-3.49-6.68.14-19.56,4.28-20.53,18.93-.13,1.96,1.36,3.66,3.32,3.79Z"/>
    </g>
  </g>
</svg>