<?xml version="1.0" encoding="UTF-8"?>
<svg id="Warstwa_2" data-name="Warstwa 2" xmlns="http://www.w3.org/2000/svg" viewBox="0 0 162.61 160.45">
  <g id="Warstwa_1-2" data-name="Warstwa 1">
    <g id="_84_Award_Badge_Quality" data-name="84, Award, Badge, Quality">
      <g>
        <path d="m141.09,153.07c1.49,0,2.69,1.19,2.69,2.66s-1.2,2.66-2.69,2.66-2.69-1.19-2.69-2.66,1.2-2.66,2.69-2.66Z"/>
        <path d="m154.24,105.2c1.49,0,2.69,1.19,2.69,2.66s-1.2,2.66-2.69,2.66-2.69-1.19-2.69-2.66,1.2-2.66,2.69-2.66Z"/>
        <path d="m130.03,3.55c1.49,0,2.69,1.19,2.69,2.66s-1.2,2.66-2.69,2.66-2.69-1.19-2.69-2.66,1.2-2.66,2.69-2.66Z"/>
        <path d="m34.67,0c1.49,0,2.69,1.19,2.69,2.66s-1.2,2.66-2.69,2.66-2.69-1.19-2.69-2.66,1.2-2.66,2.69-2.66Z"/>
        <path d="m8.37,46.1c1.49,0,2.69,1.19,2.69,2.66s-1.2,2.66-2.69,2.66-2.69-1.19-2.69-2.66,1.2-2.66,2.69-2.66Z"/>
        <path d="m15.84,90.42c1.49,0,2.69,1.19,2.69,2.66s-1.2,2.66-2.69,2.66-2.69-1.19-2.69-2.66,1.2-2.66,2.69-2.66Z"/>
        <path d="m47.83,155.13c1.49,0,2.69,1.19,2.69,2.66s-1.21,2.66-2.69,2.66-2.69-1.19-2.69-2.66,1.2-2.66,2.69-2.66Z"/>
        <path d="m140.79,46.98l-5.68-4.73c-2.09-1.48-3.29-3.84-3.59-6.21l-1.49-7.68c-1.2-6.8-7.17-11.82-14.35-11.82h-7.47c-2.69,0-5.08-.89-6.88-2.36l-5.68-4.73c-5.38-4.43-13.45-4.43-18.83,0l-5.98,4.73c-2.09,1.48-4.48,2.36-6.88,2.36h-7.47c-7.17,0-13.15,5.02-14.35,11.82l-1.2,7.39c-.3,2.36-1.79,4.73-3.59,6.21l-5.68,4.73c-5.38,4.43-6.88,12.11-3.29,18.32l3.89,6.5c1.2,2.07,1.79,4.73,1.2,7.09l-1.2,7.39c-1.2,6.8,2.69,13.59,9.27,15.96l7.18,2.66c2.09.59,3.59,2.07,5.08,3.55l-18.83,31.91c-.3.59-.3,1.48,0,2.07.3.59,1.19.89,1.79.89l22.12-4.14,8.97,20.39c.6,1.48,2.69,1.48,3.29,0l15.24-28.66,15.25,28.66c.3.59.9.89,1.79.89.6,0,1.49-.3,1.79-1.18l8.97-20.39,22.12,4.14c.6,0,1.49-.3,1.79-.89.3-.59.6-1.48,0-2.07l-19.13-31.62c1.2-1.77,2.99-2.95,4.78-3.55l7.17-2.66c6.58-2.36,10.46-9.16,9.27-15.96l-1.2-7.39c-.3-2.36,0-5.02,1.2-7.09l3.89-6.5c3.29-5.91,2.09-13.59-3.29-18.03Zm-27.8,88.06c-.9-.3-1.79.3-2.09,1.18l-8.07,18.03-15.25-28.37c-.6-1.18-2.69-1.18-3.29,0l-15.25,28.37-8.07-18.03c-.3-.89-1.2-1.18-2.09-1.18l-19.43,3.55,15.84-26.89,2.39,3.84c3.59,6.21,11.06,8.86,17.64,6.21l7.17-2.66c2.39-.89,5.08-.89,7.47,0l7.17,2.66c6.58,2.36,14.05-.3,17.64-6.21l2.39-3.84,15.84,26.89-20.03-3.55Zm27.8-71.81l-3.89,6.5c-1.79,2.95-2.39,6.5-1.79,9.75l1.19,7.39c.9,5.02-2.09,10.05-6.88,11.82l-7.17,2.66c-3.29,1.18-5.68,3.25-7.47,6.2-4.48,7.68-3.89,6.5-3.89,6.5-2.69,4.43-8.07,6.5-13.15,4.73l-7.17-2.66c-3.29-1.18-6.87-1.18-9.86,0l-6.88,2.66c-5.08,1.77-10.46-.3-13.15-4.73l-3.89-6.5c-1.79-2.95-4.48-5.32-7.77-6.2l-7.17-2.66c-5.08-1.77-7.77-6.8-6.88-11.82l1.19-7.39c.6-3.25,0-6.8-1.79-9.75l-3.89-6.5c-2.69-4.43-1.49-10.34,2.39-13.59l5.68-4.73c2.69-2.07,4.48-5.32,5.08-8.57l1.19-7.39c.9-5.02,5.38-8.86,10.76-8.86h7.47c3.29,0,6.87-1.18,9.27-3.25l5.68-4.73c4.18-3.25,9.86-3.25,14.05,0l5.68,4.73c2.69,2.07,5.98,3.25,9.27,3.25h8.67c5.38,0,9.86,3.84,10.76,8.86l1.19,7.39c.6,3.25,2.39,6.5,5.08,8.57l5.68,4.73c3.89,3.55,4.78,9.16,2.39,13.59Z"/>
        <path d="m86.09,28.07c-20.63,0-37.36,16.55-37.36,36.94s16.74,36.94,37.36,36.94,37.37-16.55,37.37-36.94-16.74-36.94-37.37-36.94Zm0,70.03c-18.53,0-33.78-14.77-33.78-33.39s14.94-33.39,33.78-33.39,33.78,14.77,33.78,33.39-15.25,33.39-33.78,33.39Z"/>
        <path d="m104.62,57.03h-12.85l-3.89-12.12c-.3-.89-.9-1.18-1.79-1.18s-1.49.59-1.79,1.18l-3.89,12.12h-12.85c-.9,0-1.49.59-1.79,1.18-.3.59,0,1.48.6,2.07l10.46,7.39-3.89,12.12c-.3.89,0,1.48.6,2.07.3.3.6.3,1.2.3s.9,0,1.19-.3l10.46-7.39,10.46,7.39c.6.59,1.49.59,2.09,0,.6-.59.9-1.18.6-2.07l-3.89-12.12,10.46-7.39c.6-.59.9-1.18.6-2.07-.6-.59-1.49-1.18-2.09-1.18Zm-12.55,8.57c-.6.59-.9,1.18-.6,2.07l2.69,7.98-6.88-5.02c-.3-.29-.6-.29-1.2-.29s-.9,0-1.2.29l-6.87,5.02,2.69-7.98c.3-.89,0-1.48-.6-2.07l-6.88-4.73h8.37c.9,0,1.49-.59,1.79-1.18l2.69-7.98,2.69,7.98c.3.89.9,1.18,1.79,1.18h8.37l-6.87,4.73Z"/>
        <path d="m151.25,8.86c-6.28,0-11.36,5.02-11.36,11.23s5.08,11.23,11.36,11.23,11.36-5.02,11.36-11.23-5.08-11.23-11.36-11.23Zm0,18.62c-4.18,0-7.47-3.25-7.47-7.39s3.29-7.39,7.47-7.39,7.47,3.25,7.47,7.39-3.29,7.39-7.47,7.39Z"/>
        <path d="m13.15,114.36c-7.17,0-13.15,5.91-13.15,13s5.98,13,13.15,13,13.15-5.91,13.15-13-5.98-13-13.15-13Zm0,22.16c-5.08,0-9.27-4.14-9.27-9.16s4.18-9.16,9.27-9.16,9.27,4.14,9.27,9.16-4.18,9.16-9.27,9.16Z"/>
      </g>
    </g>
  </g>
</svg>