<?xml version="1.0" encoding="UTF-8"?>
<svg id="Warstwa_2" data-name="Warstwa 2" xmlns="http://www.w3.org/2000/svg" viewBox="0 0 175.07 120.39">
  <g id="Warstwa_1-2" data-name="Warstwa 1">
    <path id="_11" data-name="11" d="m158.9,17.76v-8.62l-1.28-.85c-11.5-7.61-27.49-10.05-46.23-7.05-11.65,1.86-20.87,5.22-23.86,6.39-2.99-1.17-12.21-4.53-23.86-6.39C44.94-1.75,28.96.69,17.45,8.29l-1.28.85v8.62H4.47c-2.47,0-4.47,2-4.47,4.47v93.69c0,2.47,2,4.47,4.47,4.47h166.13c2.47,0,4.47-2,4.47-4.47V22.23c0-2.47-2-4.47-4.47-4.47h-11.7Zm-68.42-5.14c7.88-2.93,40.64-13.74,62.71-.38v89.27c-3.85-1.43-10.19-3.41-18.13-4.54-11.2-1.59-27.68-1.68-44.58,6.17V12.63Zm-68.6-.38c22.07-13.36,54.84-2.54,62.71.38v90.52c-11.56-5.37-22.93-7.03-32.54-7.03-4.44,0-8.5.35-12.04.86-7.95,1.13-14.29,3.11-18.13,4.54V12.24Zm147.49,102.44H5.7V23.47h10.47v86.84s4.09-1.97,4.09-1.97c.08-.04,8.45-4.03,20.74-5.74,10.94-1.53,27.3-1.51,43.77,7v2.98l2.76-1.5,2.76,1.5v-2.98c16.47-8.51,32.83-8.53,43.77-7,12.29,1.72,20.66,5.7,20.74,5.74l4.1,1.99V23.47h10.47v91.22Z"/>
  </g>
</svg>