<?xml version="1.0" encoding="UTF-8"?>
<svg id="Warstwa_2" data-name="Warstwa 2" xmlns="http://www.w3.org/2000/svg" viewBox="0 0 121.49 188.58">
  <g id="Warstwa_1-2" data-name="Warstwa 1">
    <g>
      <path d="m121.48,177.32c.03-.79.5-19.51-11.29-30.31-1.16-1.06-2.91-1.13-4.16-.19-.52.4-12.93,9.58-24.64.04-1.22-1-2.99-.97-4.18.07-.17.15-1.68,1.51-3.58,4.03-1.81-2.79-3.97-5.44-6.57-7.82-1.16-1.06-2.91-1.13-4.16-.18-.78.6-19.34,14.4-36.99.02-1.22-1-2.99-.97-4.18.07-.67.59-16.46,14.62-16.86,42.25-.01.87.33,1.71.94,2.32.61.62,1.44.97,2.31.97h71.4c1.75-.01,3.19-1.4,3.24-3.15,0-.28.06-2.12-.13-4.96h35.6c1.75,0,3.18-1.39,3.24-3.15Zm-109.98,4.77c1.14-17.31,9.07-28.17,12.7-32.28,16.86,11.75,34.06,3.6,40.25-.13,9.57,10.28,11.42,25.81,11.76,32.4H11.5Zm70.42-8.11c-.76-4.9-2.18-10.82-4.8-16.62.94-1.54,1.87-2.79,2.61-3.68,10.43,6.76,21.55,3.61,27.82-.07,5.56,6.45,6.98,15.61,7.33,20.37h-32.96Z"/>
      <path d="m87.86,62.59h-25.31v7.97c0,3.98,3.24,7.22,7.22,7.22h22.51l6.39,7.36c.47.54,1.15.84,1.84.84.32,0,.63-.06.94-.19.97-.41,1.57-1.39,1.49-2.43l-.44-5.57h11.56c3.98,0,7.22-3.24,7.22-7.22v-28.53c0-3.98-3.24-7.22-7.22-7.22h-15.76v17.33c0,5.76-4.69,10.45-10.45,10.45Zm11.03-10.3v-12.61h15.17c1.3,0,2.35,1.05,2.35,2.35v28.53c0,1.3-1.05,2.36-2.35,2.36h-14.2c-.68,0-1.32.28-1.79.78-.46.5-.69,1.17-.64,1.84l.07.84-2.28-2.62c-.46-.53-1.13-.84-1.83-.84h-23.62c-1.3,0-2.35-1.06-2.35-2.36v-7.59h20.79c5.89,0,10.68-4.79,10.68-10.68Z"/>
      <path d="m0,52.14c0,5.76,4.69,10.45,10.45,10.45h28.09l-.79,10.07c-.1,1.21.6,2.34,1.71,2.8.35.15.72.22,1.09.22.79,0,1.57-.34,2.11-.96l10.55-12.13h34.66c5.76,0,10.45-4.69,10.45-10.45V10.45c0-5.77-4.69-10.45-10.45-10.45H10.45C4.69,0,0,4.69,0,10.45v41.69ZM5.61,10.45c0-2.67,2.17-4.85,4.84-4.85h77.41c2.67,0,4.84,2.18,4.84,4.85v41.69c0,2.67-2.17,4.84-4.84,4.84h-35.94c-.81,0-1.58.35-2.12.96l-5.81,6.68.36-4.62c.06-.78-.2-1.55-.73-2.12-.53-.57-1.28-.9-2.06-.9H10.45c-2.67,0-4.84-2.17-4.84-4.84V10.45Z"/>
      <path d="m93.29,146.8h0c5.95,0,11.56-2.33,15.78-6.55,4.22-4.22,6.54-9.83,6.54-15.78,0-12.31-10.02-22.32-22.33-22.32-5.96,0-11.56,2.33-15.78,6.55-1.28,1.28-2.35,2.69-3.27,4.19.1-1,.15-2.02.15-3.04,0-16.84-13.72-30.54-30.55-30.54-8.15,0-15.82,3.18-21.6,8.96-5.77,5.78-8.95,13.45-8.95,21.6,0,16.84,13.71,30.53,30.55,30.53h0c8.15,0,15.82-3.18,21.59-8.96,2.28-2.28,4.14-4.86,5.57-7.64,0,.23-.04.45-.04.68,0,12.31,10.02,22.32,22.33,22.32Zm-11.2-33.52c3-3,6.97-4.65,11.2-4.65,8.73,0,15.84,7.1,15.84,15.83,0,4.22-1.65,8.2-4.65,11.2-2.99,3-6.97,4.65-11.19,4.65h0c-8.73,0-15.84-7.1-15.84-15.83,0-4.22,1.65-8.2,4.64-11.2Zm-21.26,13.58c-4.55,4.55-10.58,7.06-17,7.06h0c-13.26,0-24.05-10.79-24.06-24.04,0-6.42,2.5-12.46,7.05-17.01,4.55-4.55,10.59-7.06,17.01-7.06,13.26,0,24.05,10.79,24.06,24.05,0,6.41-2.5,12.45-7.06,17.01Z"/>
    </g>
  </g>
</svg>